<?xml version="1.0" encoding="iso-8859-1"?>
<!-- Generator: Adobe Illustrator 19.0.0, SVG Export Plug-In . SVG Version: 6.00 Build 0)  -->
<svg version="1.1" id="Capa_1" xmlns="http://www.w3.org/2000/svg" xmlns:xlink="http://www.w3.org/1999/xlink" x="0px" y="0px"
	 viewBox="0 0 512 512" style="enable-background:new 0 0 512 512;" xml:space="preserve">
<path style="fill:#9B4B14;" d="M51,50v452h410V50H51z"/>
<path style="fill:#E6E6E6;" d="M96,95v362h320V95H96z"/>
<polygon style="fill:#4696E6;" points="196,177 156,177 156,197 136,197 136,237 156,237 156,257 196,257 196,237 216,237 216,198 
	196,198 "/>
<path style="fill:#AAAAA0;" d="M286,40c0-16.569-13.431-30-30-30s-30,13.431-30,30h-90v96l20-16l20,16l20-16l20,16l20-16l20,16
	l20-16l20,16l20-16l20,16l20-16l20,16V40H286z"/>
<path d="M461,40h-75c0-5.523-4.477-10-10-10h-81.266C290.283,12.767,274.604,0,256,0s-34.283,12.767-38.734,30H136
	c-5.523,0-10,4.477-10,10H51c-5.523,0-10,4.477-10,10v452c0,5.523,4.477,10,10,10h410c5.523,0,10-4.477,10-10V50
	C471,44.477,466.523,40,461,40z M146,50h80c5.523,0,10-4.477,10-10c0-11.028,8.972-20,20-20c11.028,0,20,8.972,20,20
	c0,5.523,4.477,10,10,10h80v65.194l-3.753-3.002c-3.652-2.922-8.842-2.922-12.494,0L336,123.194l-13.753-11.002
	C320.421,110.73,318.21,110,316,110s-4.421,0.73-6.247,2.191L296,123.194l-13.753-11.002c-3.652-2.922-8.842-2.922-12.494,0
	L256,123.194l-13.753-11.002c-3.652-2.922-8.842-2.922-12.494,0L216,123.194l-13.753-11.002c-3.652-2.922-8.842-2.922-12.494,0
	L176,123.194l-13.753-11.002c-3.652-2.922-8.842-2.922-12.494,0L146,115.194V50z M156,132.806l13.753,11.002
	c3.652,2.922,8.842,2.922,12.494,0L196,132.806l13.753,11.002c3.652,2.922,8.842,2.922,12.494,0L236,132.806l13.753,11.002
	c3.652,2.922,8.842,2.922,12.494,0L276,132.806l13.753,11.002c3.652,2.922,8.842,2.922,12.494,0L316,132.806l13.753,11.002
	c3.652,2.922,8.842,2.922,12.494,0L356,132.806l13.753,11.002c1.808,1.447,4.019,2.191,6.249,2.191c1.472,0,2.953-0.325,4.331-0.987
	c3.464-1.666,5.668-5.169,5.668-9.013v-31h20v342H106V105h20v31c0,3.844,2.204,7.348,5.668,9.013s7.577,1.197,10.579-1.205
	L156,132.806z M451,492H61V60h65v25H96c-5.523,0-10,4.477-10,10v362c0,5.523,4.477,10,10,10h320c5.523,0,10-4.477,10-10V95
	c0-5.523-4.477-10-10-10h-30V60h65V492z"/>
<path d="M256,187h120c5.523,0,10-4.477,10-10s-4.477-10-10-10H256c-5.523,0-10,4.477-10,10S250.477,187,256,187z"/>
<path d="M376,207h-20c-5.523,0-10,4.477-10,10s4.477,10,10,10h20c5.523,0,10-4.477,10-10S381.523,207,376,207z"/>
<path d="M306,217c0,5.52,4.48,10,10,10s10-4.48,10-10s-4.48-10-10-10S306,211.48,306,217z"/>
<path d="M256,227h20c5.523,0,10-4.477,10-10s-4.477-10-10-10h-20c-5.523,0-10,4.477-10,10S250.477,227,256,227z"/>
<path d="M256,267h80c5.51,0,10-4.49,10-10c0-5.51-4.49-10-10-10h-80c-5.51,0-10,4.49-10,10C246,262.51,250.49,267,256,267z"/>
<path d="M376,247c-5.51,0-10,4.49-10,10c0,5.51,4.49,10,10,10s10-4.49,10-10C386,251.49,381.51,247,376,247z"/>
<path d="M146,297c0,5.523,4.477,10,10,10h220c5.523,0,10-4.477,10-10s-4.477-10-10-10H156C150.477,287,146,291.477,146,297z"/>
<path d="M256,327H136c-5.523,0-10,4.477-10,10s4.477,10,10,10h120c5.523,0,10-4.477,10-10S261.523,327,256,327z"/>
<path d="M136,367c-5.51,0-10,4.49-10,10s4.49,10,10,10s10-4.49,10-10S141.51,367,136,367z"/>
<path d="M256,367h-80c-5.51,0-10,4.49-10,10s4.49,10,10,10h80c5.51,0,10-4.49,10-10S261.51,367,256,367z"/>
<path d="M216,90h80c5.51,0,10-4.49,10-10s-4.49-10-10-10h-80c-5.51,0-10,4.49-10,10S210.49,90,216,90z"/>
<path d="M336,90c5.51,0,10-4.49,10-10s-4.49-10-10-10s-10,4.49-10,10S330.49,90,336,90z"/>
<path d="M176,90c5.51,0,10-4.49,10-10s-4.49-10-10-10s-10,4.49-10,10S170.49,90,176,90z"/>
<path d="M126,197v40c0,5.523,4.477,10,10,10h10v10c0,5.523,4.477,10,10,10h40c5.523,0,10-4.477,10-10v-10h10c5.523,0,10-4.477,10-10
	v-39c0-5.523-4.477-10-10-10h-10v-11c0-5.523-4.477-10-10-10h-40c-5.523,0-10,4.477-10,10v10h-10C130.477,187,126,191.477,126,197z
	 M146,207h10c5.523,0,10-4.477,10-10v-10h20v11c0,5.523,4.477,10,10,10h10v19h-10c-5.523,0-10,4.477-10,10v10h-20v-10
	c0-5.523-4.477-10-10-10h-10V207z"/>
<path d="M336,327c-27.57,0-50,22.43-50,50s22.43,50,50,50s50-22.43,50-50S363.57,327,336,327z M336,407c-16.542,0-30-13.458-30-30
	s13.458-30,30-30s30,13.458,30,30S352.542,407,336,407z"/>
<path d="M345.23,373.18c-0.25-0.61-0.56-1.19-0.92-1.73c-0.36-0.55-0.78-1.06-1.24-1.52c-2.32-2.32-5.78-3.39-9.02-2.73
	c-0.64,0.12-1.27,0.32-1.87,0.57c-0.61,0.25-1.19,0.56-1.73,0.92c-0.55,0.36-1.06,0.78-1.52,1.24s-0.88,0.97-1.24,1.52
	c-0.36,0.54-0.67,1.12-0.92,1.73c-0.25,0.6-0.44,1.23-0.57,1.87s-0.2,1.3-0.2,1.95s0.07,1.31,0.2,1.95s0.32,1.27,0.57,1.87
	c0.25,0.61,0.56,1.19,0.92,1.73c0.36,0.55,0.78,1.06,1.24,1.52s0.97,0.88,1.52,1.24c0.54,0.36,1.12,0.67,1.73,0.92
	c0.6,0.25,1.23,0.45,1.87,0.57c0.64,0.13,1.3,0.2,1.95,0.2c2.63,0,5.21-1.07,7.07-2.93c0.46-0.46,0.88-0.97,1.24-1.52
	c0.36-0.54,0.67-1.12,0.92-1.73c0.25-0.6,0.45-1.23,0.57-1.87c0.13-0.64,0.2-1.3,0.2-1.95s-0.07-1.31-0.2-1.95
	C345.68,374.41,345.48,373.78,345.23,373.18z"/>
<g>
</g>
<g>
</g>
<g>
</g>
<g>
</g>
<g>
</g>
<g>
</g>
<g>
</g>
<g>
</g>
<g>
</g>
<g>
</g>
<g>
</g>
<g>
</g>
<g>
</g>
<g>
</g>
<g>
</g>
</svg>
